<html>
<head>
<meta charset="UTF-8">
<meta name="viewport" content="width=device-width, initial-scale=1.0"/>

<style>
.comment
{
    padding-left: 20px;
    margin-top: 4px;
    margin-right: 4px;
    margin-bottom: 4px;
    border: 2px #000 solid;
}
.submission
{
    border: 4px #00f solid;
    padding-left: 20px;
}
.hidden
{
    display: none;
}
</style>
</head>
<body><div class="submission" id="t3_67ve7n">
    <p class="userinfo">
        <a href="https://www.reddit.com/u/TheMrMcGibblets">TheMrMcGibblets</a>
        <span class="score"> | 36 points</span>
        <span class="timestamp"> | Apr 27 2017 12:53:11</span>
    </p>
    <strong>[MOVIE] Nick and Norahs Infinite Playlist 2008 720p BluRay H264 AAC [1.08GB]</strong>
    <p><p>Add mega</p>
<p>.nz/#!cXJz3QQK</p>
<p>!KyhK8HOgrUCaiDzH0URSGOOfEGZwMJ_TAqnIxuarKHA</p>
<pre><code>Video
ID                                       : 1
Format                                   : AVC
Format/Info                              : Advanced Video Codec
Format profile                           : High@L4.1
Format settings, CABAC                   : Yes
Format settings, ReFrames                : 4 frames
Codec ID                                 : avc1
Codec ID/Info                            : Advanced Video Coding
Duration                                 : 1h 29mn
Bit rate                                 : 1 500 Kbps
Width                                    : 1 280 pixels
Height                                   : 694 pixels
Display aspect ratio                     : 1.85:1
Frame rate mode                          : Constant
Frame rate                               : 23.976 (23976/1000) fps
Color space                              : YUV
Chroma subsampling                       : 4:2:0
Bit depth                                : 8 bits
Scan type                                : Progressive
Bits/(Pixel*Frame)                       : 0.070
Stream size                              : 961 MiB (87%)
Writing library                          : x264 core 148 r2638M 7599210
Encoding settings                        : cabac=1 / ref=4 / deblock=1:-1:-1 / analyse=0x3:0x113 / me=umh / subme=9 / psy=1 / psy_rd=1.00:0.15 / mixed_ref=1 / me_range=24 / chroma_me=1 / trellis=2 / 8x8dct=1 / cqm=0 / deadzone=21,11 / fast_pskip=1 / chroma_qp_offset=-3 / threads=32 / lookahead_threads=4 / sliced_threads=0 / nr=0 / decimate=1 / interlaced=0 / bluray_compat=0 / constrained_intra=0 / bframes=3 / b_pyramid=2 / b_adapt=2 / b_bias=0 / direct=3 / weightb=1 / open_gop=0 / weightp=2 / keyint=250 / keyint_min=25 / scenecut=40 / intra_refresh=0 / rc_lookahead=50 / rc=2pass / mbtree=1 / bitrate=1500 / ratetol=1.0 / qcomp=0.60 / qpmin=0 / qpmax=69 / qpstep=4 / cplxblur=20.0 / qblur=0.5 / vbv_maxrate=31250 / vbv_bufsize=31250 / nal_hrd=none / filler=0 / ip_ratio=1.40 / aq=3:1.00
Encoded date                             : UTC 2016-03-08 01:54:14
Tagged date                              : UTC 2016-03-08 01:54:14

Audio
ID                                       : 2
Format                                   : AAC
Format/Info                              : Advanced Audio Codec
Format profile                           : LC
Codec ID                                 : 40
Duration                                 : 1h 29mn
Duration_LastFrame                       : 43ms
Bit rate mode                            : Constant
Bit rate                                 : 224 Kbps
Channel(s)                               : 2 channels
Channel(s)_Original                      : 6 channels
Channel positions                        : Front: L C R, Side: L R, LFE
Sampling rate                            : 48.0 KHz
Frame rate                               : 46.875 fps (1024 spf)
Compression mode                         : Lossy
Stream size                              : 143 MiB (13%)
Language                                 : English
Default                                  : Yes
Alternate group                          : 1
Encoded date                             : UTC 2016-03-08 01:54:14
Tagged date                              : UTC 2016-03-08 01:54:14

Uploaded per a request on this weeks request thread
</code></pre></p>
    <p class="toolbar">
        <a href="https://www.reddit.com/r/megalinks/comments/67ve7n">permalink</a>
    </p>
</div>
<div class="comment" id="t1_dgthla3">
    <p class="userinfo">
        <a
        class="toggle_hide_button"
        href="javascript:void(0)"
        onclick="toggle_collapse(this.parentElement.parentElement)">[-]
        </a>
        <a href="https://www.reddit.com/u/SubZorro">SubZorro</a>
        <span class="score"> | 1 points</span>
        <span class="timestamp"> | Apr 27 2017 12:54:05</span>
    </p>
    <div class="collapsible">
        <h5>Subtitles for this movie:</h5>
<hr>
<blockquote>
<ul>
<li>
<p><strong>Nick.and.Norahs.Infinite.Playlist.DVDRip.XviD-Larceny</strong> - <code>1 CD</code> - <a href="http://dl.opensubtitles.org/en/download/vrf-d7419561/sub/3416603">Download Subtitle</a></p>
</li>
<li>
<p><strong>Nick and Norahs Infinite Playlist DVDRip XviD-Larceny</strong> - <code>1 CD</code> - <a href="http://dl.opensubtitles.org/en/download/vrf-e4be45ac/sub/3415898">Download Subtitle</a></p>
</li>
<li>
<p><strong>Nick.and.Norahs.Infinite.Playlist.REPACK.DVDRip.XviD-Larceny</strong> - <code>1 CD</code> - <a href="http://dl.opensubtitles.org/en/download/vrf-c20c48e3/sub/3416908">Download Subtitle</a></p>
</li>
</ul>
</blockquote>
<hr>
<p>^This ^list ^of ^subtitles ^are ^taken ^from <a href="http://www.opensubtitles.org">^opensubtitles.org</a> ^| ^For ^feedback ^or ^suggestions ^contact <a href="http://www.reddit.com/message/compose/?to=indigo6alpha">^/u/indigo6alpha</a></p>
        <p class="toolbar">
            <a href="https://www.reddit.com/r/megalinks/comments/67ve7n/_/dgthla3">permalink</a>
        </p>
        
    </div>
</div>
</body>

<script>
function toggle_collapse(comment_div)
{
    var button = comment_div.getElementsByClassName("toggle_hide_button")[0];
    var collapsible = comment_div.getElementsByClassName("collapsible")[0];
    if (collapsible.classList.contains("hidden"))
    {
        collapsible.classList.remove("hidden");
        button.innerText = "[-]";
    }
    else
    {
        collapsible.classList.add("hidden");
        button.innerText = "[+]";
    }
}
</script>
</html>
